<svg width="501" height="378" viewBox="0 0 501 378" fill="none" xmlns="http://www.w3.org/2000/svg">
<path d="M320.936 339.693C293.508 317.472 277.103 289.214 271.602 253.764C269.493 257.004 268.863 259.704 268.673 262.46C268.48 265.255 268.63 268.073 268.63 270.945C266.177 271.485 264.808 269.79 263.33 268.627C250.016 258.155 246.63 245.612 253.374 229.638C255.112 225.522 254.179 223.524 251.097 220.835C231.29 203.554 208.897 191.255 183.381 184.716C158.094 178.236 136.171 165.073 114.984 150.373C101.268 140.857 86.8476 132.603 71.201 126.522C49.7279 118.176 27.8948 116.593 5.52639 121.987C3.78152 122.408 2.05363 123.21 0.00595721 122.174C-0.131693 117.94 2.13911 114.573 4.43305 111.433C14.0083 98.3224 27.3529 90.3154 42.1346 84.483C63.5402 76.0371 85.8109 74.7194 108.485 76.6836C121.726 77.8307 135.011 79.966 148.265 76.9923C155.62 75.3423 161.837 71.646 166.569 65.5984C168.151 63.5759 168.594 61.7568 167.697 59.1931C164.052 48.7793 165.978 38.8025 170.904 29.3104C173.74 23.8451 178.63 21.4287 183.063 22.693C187.485 23.9539 189.959 27.9666 189.723 34.2533C189.593 37.7256 188.857 41.1736 188.427 44.6367C187.717 50.3531 190.956 53.3232 196.718 52.299C199.576 51.7911 202.064 50.4183 204.457 48.9137C214.055 42.8782 224.692 40.5996 235.829 40.0623C236.494 40.0302 237.164 40.0572 237.828 40.0113C240.493 39.8271 243.758 39.8726 244.622 36.973C245.419 34.2943 242.231 33.3357 240.48 31.9905C237.18 29.4563 233.534 27.3508 230.371 24.6675C225.471 20.5105 224.234 14.8012 226.841 10.421C229.259 6.36048 234 5.03983 240.199 6.92266C250.275 9.98348 258.447 15.7663 264.255 24.6006C265.882 27.076 267.882 28.757 270.465 30.1259C291.979 41.5282 313.969 40.9426 336.205 32.7403C353.09 26.5121 369.088 18.1378 386.017 11.9919C407.322 4.25747 429.124 -0.806469 451.941 0.106007C465.929 0.665363 479.376 3.53836 491.22 11.6085C495.2 14.3199 498.888 17.3243 500.807 22.1852C498.114 24.3056 495.087 23.8429 492.444 24.2624C463.407 28.8687 440.49 43.8881 421.302 65.4666C408.917 79.3949 400.092 95.7175 390.225 111.337C380.662 126.476 370.125 140.885 356.636 152.724C336.556 170.348 322.043 192.236 307.751 214.381C306.075 216.978 307.135 218.662 308.581 220.624C313.051 226.688 317.157 232.878 317.998 240.715C318.995 250.006 312.17 263.698 303.662 268.025C302.321 261.598 302.194 254.758 296.85 249.179C295.777 256.574 296.844 263.213 298.054 269.822C303.777 301.076 321.937 323.952 347.238 341.715C372.78 359.647 401.436 369.951 432.106 374.96C433.49 375.186 435.194 374.703 435.976 376.511C417.331 383.783 351.166 362.666 320.936 339.693ZM176.424 61.5633C179.635 67.6169 185.675 70.8998 190.698 75.2733C187.142 76.3641 184.363 75.2342 181.699 74.0157C178.888 72.73 176.235 71.0995 173.614 69.6749C163.159 80.8657 159.644 83.232 149.899 85.979C144.379 87.535 138.743 87.7035 133.067 87.6832C115.921 87.6218 98.9191 84.5426 81.7103 85.4903C59.9684 86.6876 39.7364 92.4361 21.5928 104.688C16.9772 107.805 12.4264 111.138 8.65096 116.534C10.9002 115.951 12.3222 115.606 13.731 115.214C29.9974 110.681 46.3111 110.919 62.6435 114.784C83.051 119.613 101.376 129.087 118.456 140.883C141.468 156.775 165.351 170.578 192.431 178.618C215.196 185.376 234.883 197.651 251.125 215.21C252.86 217.085 254.268 219.521 257.246 220.437C262.109 212.475 261.595 204.241 258 195.665C261.298 196.009 261.953 197.871 262.884 199.378C268.688 208.775 267.084 218.161 262.756 227.515C260.309 232.803 257.702 238.012 256.909 243.907C256.142 249.608 259.402 258.124 263.223 260.618C265.328 248.52 272.964 237.527 271.552 224.305C276.192 241.805 278.348 259.597 284.023 276.595C289.76 293.782 298.877 308.919 310.691 322.522C321.828 335.346 344.369 351.462 354.617 353.52C345.025 348.253 336.932 342.456 329.356 335.919C299.758 310.382 284.681 278.128 286.412 239.019C288.051 201.974 301.522 169.007 324.488 139.964C328.415 134.998 332.232 129.806 337.84 126.298C335.215 131.416 332.045 136.141 329.044 140.971C316.562 161.061 307.252 182.511 301.579 205.503C300.901 208.248 299.898 211.121 303.872 212.434C304.275 212.062 304.746 211.795 304.969 211.392C306.097 209.353 307.258 207.324 308.231 205.21C317.594 184.861 330.109 166.772 346.278 151.19C360.639 137.35 372.527 121.534 382.818 104.473C389.785 92.9221 396.527 81.2075 404.917 70.5885C424.257 46.1103 447.678 27.7445 479.096 21.5352C483.198 20.7247 487.37 20.2758 492.276 19.5454C480.775 12.4449 468.905 9.37564 456.491 8.71486C437.114 7.68343 418.451 11.7111 400.084 17.5674C380.507 23.8095 362.326 33.416 343.235 40.8169C323.184 48.5902 302.817 52.0311 281.822 44.7188C277.662 43.2701 273.668 41.3452 269.473 39.5876C267.481 43.7723 267.812 48.5534 264.02 51.4539C262.342 49.8282 263.167 48.1106 263.241 46.572C263.975 31.211 252.753 16.6882 237.615 13.507C236.174 13.2041 234.605 12.5271 233.481 14.0815C232.182 15.8785 233.464 17.2864 234.526 18.5022C237.412 21.8074 241.303 23.8621 244.802 26.3956C250.577 30.5775 255.71 35.3188 257.772 42.3909C259.186 47.2424 259.656 52.2039 256.307 58.0542C254.493 51.8954 255.042 46.1987 250.621 42.0895C246.853 45.3744 242.307 46.1874 237.627 46.7781C229.702 47.7784 221.716 48.7098 214.34 52.0344C206.225 55.6924 198.523 60.6899 188.965 58.1241C188.787 62.758 192.179 64.8095 193.674 67.9215C191.258 68.8053 189.89 67.3708 188.518 66.3007C181.536 60.8514 180.19 53.4461 181.373 45.208C181.893 41.5894 182.514 37.9826 182.919 34.3515C183.104 32.696 183.01 30.7365 181.114 30.0943C179.074 29.4036 178.102 31.2058 177.38 32.6427C172.754 41.8528 171.344 51.2525 176.424 61.5633ZM306.103 254.799C306.74 255.688 305.985 257.174 307.334 257.797C314.346 246.188 310.937 231.138 298.884 221.307C297.108 228.999 294.354 236.367 300.961 243.308C303.694 246.179 304.82 250.247 306.103 254.799Z" fill="#2C3E50"/>
<path d="M278.502 64.5604C283.591 61.9978 286.874 57.8388 290.508 53.2255C292.791 64.0277 281.449 74.2686 263.637 78.7275C262.093 74.7961 264.441 72.3492 267.194 70.5771C270.669 68.3401 274.507 66.6663 278.502 64.5604Z" fill="#2C3E50"/>
<path d="M196.031 96.5142C190.591 96.6834 185.584 97.1317 180.803 95.2279C176.595 93.5517 172.917 91.2793 171.648 85.8417C180.175 90.9251 189.437 88.6754 198.362 89.5332C201.419 89.8271 204.539 90.8242 206.071 94.5738C202.968 96.2677 199.581 95.7227 196.031 96.5142Z" fill="#2C3E50"/>
<path d="M209.724 57.637C221.145 51.0158 232.776 48.3134 245.433 52.7194C231.078 55.0074 216.841 57.5209 203.232 66.2283C204.345 61.2826 207.301 59.8962 209.724 57.637Z" fill="#2C3E50"/>
<path d="M278.815 81.7735C284.763 79.4782 289.243 75.6651 293.49 70.7336C295.557 81.7094 282.35 89.9579 268.364 92.041C268.873 85.545 274.054 84.0997 278.815 81.7735Z" fill="#2C3E50"/>
<path d="M204.595 109.844C192.407 111.914 184.528 109.426 180.976 102.604C181.327 101.866 182.006 101.73 182.633 101.971C188.856 104.362 195.233 104.369 201.753 103.599C206.37 103.054 209.087 104.637 211.064 108.325C209.383 110.155 207.028 109.256 204.595 109.844Z" fill="#2C3E50"/>
<path d="M278.725 104.901C276.162 105.479 274.244 107.239 270.653 106.319C274.099 96.2114 285.759 98.2743 290.961 90.3968C291.461 97.6415 287.908 101.445 278.725 104.901Z" fill="#2C3E50"/>
<path d="M203.988 122.831C200.237 122.177 197.283 120.935 195.437 117.291C202.889 118.696 210.967 114.232 219.091 120.573C213.696 123.149 209.058 123.101 203.988 122.831Z" fill="#2C3E50"/>
<path d="M280.48 117.707C277.848 119.066 275.596 120.479 272.818 119.97C272.483 115.18 276.566 112.029 285.087 110.635C284.805 113.796 282.907 115.707 280.48 117.707Z" fill="#2C3E50"/>
<path d="M224.635 132.307C217.493 135.146 213.998 134.542 210.289 130.19C215.73 127.678 221.954 128.443 224.635 132.307Z" fill="#2C3E50"/>
</svg>
