<svg width="856" height="852" viewBox="0 0 856 852" fill="none" xmlns="http://www.w3.org/2000/svg">
<path d="M33.5934 355.5C31.76 365.334 29.6965 375.132 28.2071 385.018C27.6147 388.949 27.5301 393.007 27.1831 397.008C25.6252 414.972 24.7428 433 26.1896 450.993C27.3854 465.864 28.5674 480.828 31.3081 495.46C34.8343 514.285 39.7045 532.836 45.8919 551.069C50.0966 563.459 55.0568 575.515 60.3011 587.409C64.7931 597.597 70.65 607.23 75.9443 617.081C88.0322 639.571 102.602 660.351 118.175 680.437C131.429 697.531 146.407 713.101 162.574 727.522C184.512 747.091 208.133 764.391 233.669 778.866C250.926 788.648 268.878 797.108 287.514 804.208C299.763 808.874 312.087 813.348 324.656 816.77C337.771 820.341 351.094 823.442 364.592 825.512C372.389 826.708 380.324 827.089 388.057 828.247C409.062 831.391 430.092 829.408 451.095 829.916C460.163 830.136 469.094 827.982 478.101 827.076C488.069 826.073 497.854 824.21 507.591 821.991C516.503 819.961 525.326 817.59 534.157 815.24C545.736 812.158 556.891 808.056 568.082 803.969C579.733 799.715 590.847 794.194 602.059 788.926C603.227 788.377 604.268 787.63 605.593 787.5" stroke="white" stroke-width="4" stroke-linecap="round" stroke-linejoin="round"/>
<path d="M490.593 396.501C484.556 397.772 480.359 402.305 475.709 405.661C451.111 423.42 424.262 436.927 396.589 448.992C392.618 450.723 388.484 452.115 384.616 454.047C376.781 457.959 369.31 456.395 361.564 453.582C352.205 450.185 342.755 447.02 333.106 444.454C319.39 440.805 305.78 436.761 292.087 433.024C281.285 430.075 270.487 427.067 259.573 424.59C251.677 422.798 243.568 421.967 235.606 420.435C232.444 419.826 230.177 420.026 227.504 422.4C216.027 432.597 202.972 440.532 189.623 448.052C176.714 455.325 163.274 461.438 149.55 466.891C143.307 469.371 136.661 470.975 130.077 472.426C121.143 474.394 112.098 475.862 103.088 477.469C101.795 477.699 100.427 477.501 99.0964 477.5C97.2992 475.301 97.2853 472.431 97.2496 469.998C97.166 464.308 94.5808 459.95 91.0387 456.05C88.3843 453.128 87.9536 450.808 90.5034 447.433C94.2338 442.494 96.7508 436.924 97.1709 430.506C97.3886 427.18 98.803 424.801 103.096 424.911C113.755 425.183 124.427 425.026 135.093 424.995C151.961 424.946 168.355 421.855 184.607 417.554C198.203 413.956 210.667 408.186 222.126 400.047C227.009 396.578 230.922 392.172 235.082 387.989C239.874 383.171 241.361 383.094 246.072 388.021C247.867 389.898 249.864 391.779 251.012 394.042C254.529 400.974 260.893 402.097 267.589 403.03C281.714 404.998 295.96 403.146 310.09 404.531C314.942 405.006 319.75 406.299 324.595 406.399C333.278 406.576 341.025 408.81 348.15 413.922C353.389 417.681 359.843 416.453 365.565 415.765C372.231 414.964 378.936 414.42 385.6 413.548C399.491 411.729 413.417 410.12 427.086 406.971C441.237 403.71 455.495 400.797 469.092 395.496C472.436 394.192 475.76 392.834 479.093 391.501" stroke="white" stroke-width="4" stroke-linecap="round" stroke-linejoin="round"/>
<path d="M441.593 326.5C440.72 329.519 437.654 330.401 435.512 331.308C429.549 333.832 425.63 338.38 421.575 342.985C418.047 346.993 413.458 349.373 408.623 351.566C394.705 357.88 380.898 364.44 367.102 371.019C355.587 376.511 352.423 374.75 345.161 366.938C336.669 357.802 327.069 350.25 315.546 345.618C306.616 342.029 297.242 339.555 288.099 336.485C279.298 333.53 270.839 329.74 262.608 325.472C257.494 322.82 254.834 318.066 252.566 313.013C251.314 310.224 250.261 307.303 248.101 304.994C245.362 302.066 242.573 301.671 239.064 303.955C228.521 310.818 217.247 315.759 204.604 317.578C189.417 319.763 174.296 319.106 159.088 318.079C143.276 317.012 127.939 313.54 112.604 309.957C108.868 309.084 105.234 307.741 101.601 306.478C98.3692 305.355 95.6611 306.118 95.2003 309.515C94.1248 317.446 89.1189 322.701 83.5091 327.4C80.3571 330.04 80.5212 332.674 82.1509 335.467C86.4206 342.784 86.8065 350.458 85.1588 358.514C84.8947 359.805 84.2521 359.405 83.5934 359.5" stroke="white" stroke-width="4" stroke-linecap="round" stroke-linejoin="round"/>
<path d="M775.593 232.501C773.632 224.582 769.017 217.951 765.071 211.013C753.853 191.29 740.421 173.052 725.42 156.154C714.18 143.492 702.146 131.504 689.279 120.288C675.463 108.246 660.613 97.7977 645.559 87.5505C631.027 77.6581 615.578 69.3565 599.628 61.9259C590.692 57.7626 581.856 53.3503 572.568 50.0723C560.195 45.7054 547.859 41.2553 535.136 37.8419C523.72 34.7793 512.212 32.5 500.603 30.4488C479.251 26.6763 457.823 24.1404 436.093 25.0006" stroke="white" stroke-width="5" stroke-linecap="round" stroke-linejoin="round"/>
<path d="M766.593 509.5C765.825 527.346 760.627 543.869 752.144 559.528C746.034 570.808 738.039 580.807 730.929 591.39C723.973 601.742 720.328 613.069 718.782 625.025C717.577 634.335 714.703 642.893 709.995 650.691C697.582 671.252 679.936 686.16 658.629 697.07C647.373 702.835 635.835 707.964 624.034 712.341C613.907 716.096 603.543 719.269 593.614 723.548C579.715 729.538 565.741 735.513 555.593 747.5" stroke="white" stroke-width="4" stroke-linecap="round" stroke-linejoin="round"/>
<path d="M337.593 50.5005C331.8 57.6702 323.859 61.7197 315.563 64.9222C303.241 69.6788 290.349 72.6265 277.665 76.2514C257.663 81.968 238.045 88.9578 219.528 98.8782C201.108 108.747 183.061 119.01 166.536 131.928C150.28 144.635 135.225 158.49 121.517 173.933C110.484 186.363 100.371 199.408 91.6035 213.507C89.0378 217.633 86.5934 221.834 84.0934 226" stroke="white" stroke-width="5" stroke-linecap="round" stroke-linejoin="round"/>
<path d="M333.593 406.001C331.888 400.446 326.565 398.419 322.489 395.654C303.102 382.507 284.771 367.916 265.561 354.547C254.695 346.985 243.294 340.273 231.113 334.955C228.807 333.947 226.92 333.906 224.568 334.943C205.758 343.232 186.49 350.32 166.578 355.442C145.778 360.793 124.548 362.902 103.099 361.886C97.2582 361.609 91.1624 362.184 85.5934 359.501" stroke="white" stroke-width="4" stroke-linecap="round" stroke-linejoin="round"/>
<path d="M487.593 509C486.32 505.527 482.826 506.987 480.524 506.206C470.315 502.741 461.185 497.162 451.593 492.501C435.449 484.656 418.543 481.173 400.588 483.459C398.438 483.732 396.426 483.779 396.1 486.501C395.837 488.695 396.415 490.249 398.551 491.569C405.268 495.722 411.479 500.169 415.784 507.387C421.069 516.248 420.208 524.501 416.013 532.961C414.303 536.409 410.217 537.661 407.021 538.796C399.582 541.437 391.762 543.008 384.093 544.998C374.781 547.416 365.313 549.154 356.066 551.909C347.899 554.341 339.954 557.228 332.064 560.428C320.395 565.162 309.238 570.844 298.617 577.538C283.492 587.071 269.578 598.17 257.119 611.025C254.719 613.501 252.095 614.789 248.592 614.525C234.028 613.431 223.283 620.347 215.203 631.579C210.028 638.772 203.411 644.966 199.933 653.435C199.2 655.22 196.427 656.167 194.593 657.5" stroke="white" stroke-width="4" stroke-linecap="round" stroke-linejoin="round"/>
<path d="M581.093 584.501C586.826 584.666 591.237 580.959 596.001 578.798C612.706 571.222 629.075 562.876 646.127 556.085C654.725 552.661 663.852 551.164 673.044 549.691C679.382 548.675 686.32 549.174 692.167 545.107C694.722 543.33 696.595 542.041 696.18 538.49C695.689 534.282 694.868 530.597 690.09 529.517C684.606 528.279 679.133 526.547 673.581 526.192C668.948 525.896 665.861 524.08 663.622 520.483C654.9 506.469 641.344 499.931 626.09 496.015C615.275 493.239 604.115 492.203 593.094 492.24C579.896 492.285 566.696 493.725 553.558 495.777C546.218 496.923 539.027 498.872 531.602 499.587C527.199 500.011 522.838 501.486 518.668 502.747C509.907 505.397 501.223 508.06 492.09 508.964C490.742 509.097 489.786 509.697 488.843 510.501" stroke="white" stroke-width="4" stroke-linecap="round" stroke-linejoin="round"/>
<path d="M422.593 219.5C415.107 222.686 407.532 225.778 399.576 227.414C385.575 230.291 371.544 231.464 357.072 230.259C337.977 228.669 319.881 223.287 301.615 218.42C287.439 214.643 273.125 213.16 258.603 214.601C250.071 215.448 241.643 217.32 233.593 220.5" stroke="white" stroke-width="4" stroke-linecap="round" stroke-linejoin="round"/>
<path d="M582.593 278.5C589.966 279.931 595.469 283.96 598.009 291.031C600.833 298.893 599.027 306.349 593.525 312.439C586.276 320.462 576.878 325.856 568.144 332.072C559.994 337.871 551.226 342.55 542.601 347.515C536.834 350.835 535.739 353.112 538.21 359.455C540.016 364.091 540.158 369.228 543.021 373.549C544.744 376.149 543.496 379.476 544.41 382.555C546.939 391.065 548.508 399.855 550.619 408.494C552.412 415.833 555.854 422.49 559.591 429.002C563.765 436.277 566.842 443.876 566.081 452.499C565.414 460.054 562.71 466.725 557.079 471.986C554.955 473.971 552.58 474.015 550.087 472.511C544.976 469.424 541.632 461.703 543.696 456.038C545.354 451.486 545.521 447.588 542.65 443.461C539.498 438.931 540.648 433.568 540.634 428.5C540.625 425.508 539.949 423.036 538.188 420.436C532.435 411.941 526.901 403.282 521.64 394.472C514.593 382.67 508.457 370.365 503.657 357.477C500.251 348.331 502.937 340.142 509.112 333.016C520.656 319.693 532.91 307.091 547.084 296.489C549.647 294.572 552.093 292.501 554.593 290.501" stroke="white" stroke-width="4" stroke-linecap="round" stroke-linejoin="round"/>
<path d="M821.093 391.5C821.427 392.834 822.045 394.166 822.05 395.501C822.115 413.167 823.001 430.9 821.729 448.474C821.044 457.926 820.065 467.573 818.189 477.019C816.802 484.005 815.726 491.167 813.829 497.926C810.333 510.383 806.987 522.92 802.272 535.07C798.318 545.259 793.921 555.265 790.054 565.485C789.508 566.928 788.427 568.167 787.593 569.5" stroke="white" stroke-width="5" stroke-linecap="round" stroke-linejoin="round"/>
<path d="M454.593 662C444.182 665.32 433.74 667.964 422.589 667.645C414.78 667.423 407.432 665.562 400.112 663.437C387.461 659.765 374.514 658.08 361.637 660.256C352.745 661.759 343.994 665.049 335.654 668.641C322.242 674.418 308.351 675.783 294.1 674.898C289.744 674.627 285.599 672.48 281.095 672.413C280.752 672.408 280.427 671.167 280.093 670.5" stroke="white" stroke-width="4" stroke-linecap="round" stroke-linejoin="round"/>
<path d="M723.093 218.5C722.897 220.359 724.578 220.883 725.626 221.438C739.841 228.967 749.18 240.885 756.083 255.005C761.145 265.359 764.923 276.087 767.235 287.472C769.938 300.776 771.901 314.229 774.789 327.458C779.148 347.42 785.889 366.606 799.585 382.507C801.228 384.414 803.134 385.857 805.593 386.5" stroke="white" stroke-width="4" stroke-linecap="round" stroke-linejoin="round"/>
<path d="M537.593 560.5C528.2 567.816 518.948 575.282 508.123 580.561C498.352 585.326 488.428 589.567 478.13 593.107C466.379 597.146 454.234 599.375 442.069 600.789C426.003 602.656 409.846 604.38 393.593 604.001C385.357 603.809 377.36 606.464 369.091 606.058C367.761 605.993 366.493 606.867 365.593 608" stroke="white" stroke-width="4" stroke-linecap="round" stroke-linejoin="round"/>
<path d="M534.093 603.501C529.03 603.079 524.663 605.676 520.155 607.185C515.349 608.794 510.34 609.832 505.544 610.739C483.465 614.916 461.189 617.762 438.592 617.041C421.726 616.502 404.956 614.573 388.109 613.698C381.858 613.373 375.451 612.159 369.1 611.445C368.221 611.346 367.427 610.501 366.593 610.001" stroke="white" stroke-width="5" stroke-linecap="round" stroke-linejoin="round"/>
<path d="M255.593 549.5C243.798 554.675 231.644 557.888 218.597 558.168C210.911 558.333 203.257 557.898 195.594 557.849C190.389 557.816 185.095 556.219 180.16 554.774C164.137 550.081 149.055 542.693 132.672 538.681C123.319 536.39 114.291 536.437 105.107 537.17C100.861 537.509 96.76 539.667 92.5934 541" stroke="white" stroke-width="4" stroke-linecap="round" stroke-linejoin="round"/>
<path d="M320.093 190.501C319.506 191.281 319.909 192.634 318.595 193.005C308.778 195.776 298.729 198.025 288.598 197.795C277.259 197.537 265.977 195.427 255.108 191.955C237.983 186.485 220.605 184.136 202.581 185.305C195.472 185.766 188.589 187.161 181.607 188.102C178.692 188.494 175.927 190.001 173.093 191.001" stroke="white" stroke-width="4" stroke-linecap="round" stroke-linejoin="round"/>
<path d="M393.593 175.501C387.755 178.764 381.201 177.867 375.096 177.786C362.235 177.614 350.637 172.4 339.021 167.16C329.674 162.944 319.9 159.822 309.671 157.636C300.192 155.611 290.804 155.451 281.627 156.344C272.136 157.269 262.604 160.024 254.124 165.053C253.213 165.593 252.426 165.332 251.593 165.501" stroke="white" stroke-width="4" stroke-linecap="round" stroke-linejoin="round"/>
<path d="M503.093 236C497.569 234.307 493.126 237.194 488.602 239.517C467.25 250.48 446.029 261.706 424.547 272.407C414.907 277.209 411.05 283.779 416.567 295.513C420.058 302.938 423.095 310.53 427.453 317.587C431.069 323.443 437.209 323.549 442.365 325.953C442.781 326.146 443.826 325.851 444.046 325.473C448.004 318.682 455.373 316.676 461.674 313.67C476.77 306.471 491.252 298.152 506.095 290.504C508.414 289.31 510.743 288.132 513.099 287.012C514.83 286.189 516.56 285.999 518.093 287.5" stroke="white" stroke-width="4" stroke-linecap="round" stroke-linejoin="round"/>
<path d="M548.093 174.001C537.108 176.879 525.997 179.422 514.6 178.87C506.718 178.489 498.867 177.31 491.068 175.618C477.405 172.653 463.744 168.867 449.599 169.608C439.337 170.146 429.19 172.009 419.601 176.019C415.887 177.572 412.26 179.334 408.593 181.001" stroke="white" stroke-width="4" stroke-linecap="round" stroke-linejoin="round"/>
<path d="M595.593 703C584.082 698.377 573.266 701.837 562.607 706.035C550.529 710.792 540.055 718.558 528.639 724.587C513.068 732.811 496.957 738.178 479.091 737.031C474.481 736.735 470.489 734.449 466.109 733.433C464.944 733.162 464.186 731.954 464.593 730.5" stroke="white" stroke-width="4" stroke-linecap="round" stroke-linejoin="round"/>
<path d="M483.593 685.5C468.178 692.439 451.909 693.63 435.643 690.722C427.401 689.248 419.174 686.522 410.994 684.378C402.76 682.22 393.812 681.665 385.097 682.078C379.91 682.323 374.671 682.95 369.621 684.119C365.392 685.097 360.867 685.437 357.093 688" stroke="white" stroke-width="4" stroke-linecap="round" stroke-linejoin="round"/>
<path d="M695.093 537.501C682.118 543.051 668.409 541.797 655.688 538.62C635.729 533.634 619.113 538.898 603.643 550.566C594.06 557.793 585.581 566.182 581.616 578.008C579.685 583.771 577.443 589.395 575.17 595.032C567.131 614.97 553.103 628.871 533.599 637.513C531.224 638.566 528.885 639.378 526.604 637.488C523.856 635.209 525.837 632.478 526.743 630.572C528.887 626.064 531.38 621.746 533.266 617.07C534.01 615.223 535.075 612.972 534.888 611.527C533.963 604.366 537.105 597.889 537.857 591.029C538.832 582.146 544.727 575.899 552.555 571.433C557.357 568.693 562.345 566.595 567.593 565.001" stroke="white" stroke-width="4" stroke-linecap="round" stroke-linejoin="round"/>
<path d="M335.593 504.001C329.3 506.284 323.445 509.455 316.635 510.724C308.459 512.248 300.675 511.875 292.574 510.628C281.303 508.894 270.797 504.147 259.577 502.623C249.619 501.27 239.466 501.046 229.618 503.597C223.919 505.074 217.879 506.021 213.093 510.001" stroke="white" stroke-width="5" stroke-linecap="round" stroke-linejoin="round"/>
<path d="M470.593 194.5C463.744 198.684 456.498 202.323 448.574 203.348C437.928 204.724 427.184 204.677 416.586 202.032C401.788 198.339 386.741 196.428 371.623 199.163C364.605 200.432 357.529 202.506 351.593 207" stroke="white" stroke-width="4" stroke-linecap="round" stroke-linejoin="round"/>
<path d="M256.593 522C249.379 525.252 241.854 527.3 234.181 529.332C223.386 532.191 212.671 531.226 202.116 530.611C194.073 530.142 185.975 527.23 178.038 524.671C168.248 521.515 157.975 520.122 147.602 521.095C145.873 521.257 144.26 522.667 142.593 523.5" stroke="white" stroke-width="5" stroke-linecap="round" stroke-linejoin="round"/>
<path d="M374.093 52.2505C366.942 65.9034 355.021 74.2196 341.527 80.3545C335.588 83.0547 328.944 84.2282 322.59 85.9878C309.364 89.6505 295.613 91.6533 283.555 98.9369C280.526 100.767 278.574 103.72 275.593 105.5" stroke="white" stroke-width="4" stroke-linecap="round" stroke-linejoin="round"/>
<path d="M364.593 608.501C354.774 607.531 344.924 607.86 335.095 608.069C328.087 608.217 321.029 608.564 314.107 609.59C299.107 611.813 284.599 616.11 271.178 623.162C264.933 626.443 258.558 629.597 253.867 635.83C247.944 643.701 239.696 648.198 229.135 649.371C222.01 650.162 214.475 650.704 207.609 653.538C205.18 654.54 202.927 653.599 200.593 653.501" stroke="white" stroke-width="4" stroke-linecap="round" stroke-linejoin="round"/>
<path d="M673.593 240.501C677.876 233.513 672.876 228.176 669.402 223.648C659.763 211.085 645.965 206.555 630.597 207.103C618.994 207.516 607.223 217.056 604.257 228.045C603.634 230.353 603.314 232.989 603.111 235.502C602.932 237.726 603.51 239.314 606.078 240.052C617.336 243.291 627.572 249.138 638.595 252.996C640.584 253.693 642.584 254.365 644.595 254.995C650.262 256.77 650.376 256.696 651.593 251.001C652.557 246.491 660.233 239.341 664.595 239.028C666.532 238.89 667.952 240.022 669.093 241.501" stroke="white" stroke-width="4" stroke-linecap="round" stroke-linejoin="round"/>
<path d="M505.843 232C503.481 234.596 503.93 236.909 505.466 240.062C511.281 251.996 516.949 264.012 523.707 275.433C526.17 279.596 524.898 282.068 522.124 285.03C513.534 294.202 502.53 299.949 492.084 306.486C485.3 310.731 478.36 314.73 471.617 319.038C467.194 321.863 466.58 324.788 468.575 329.508C472.252 338.209 474.842 347.309 478.504 356.038C484.148 369.494 491.063 382.272 498.157 394.965C500.383 398.948 504.142 399.515 508.57 396.96C511.87 395.056 514.935 392.742 518.593 391.5" stroke="white" stroke-width="4" stroke-linecap="round" stroke-linejoin="round"/>
<path d="M609.593 288C608.565 292.595 611.033 296.701 611.863 300.948C613.265 308.127 610.226 313.902 608.03 319.977C602.822 334.381 591.301 343.78 579.952 352.824C570.149 360.637 559.721 367.852 548.137 373.097C546.79 373.707 545.468 374.109 544.093 374.5" stroke="white" stroke-width="4" stroke-linecap="round" stroke-linejoin="round"/>
<path d="M139.593 651.5C131.301 648.261 126.289 641.584 121.572 634.515C114.804 624.373 111 612.797 105.584 602.005C99.9831 590.847 92.3629 581.632 80.5934 576.5" stroke="white" stroke-width="4" stroke-linecap="round" stroke-linejoin="round"/>
<path d="M487.593 511C482.993 514.518 477.344 515.544 472.087 517.484C462.442 521.042 452.879 524.894 443.054 527.869C435.888 530.039 429.145 533.531 421.607 534.599C419.681 534.872 417.927 535.101 416.093 534.5" stroke="white" stroke-width="4" stroke-linecap="round" stroke-linejoin="round"/>
<path d="M665.593 461.5C667.308 468.886 670.093 470.974 677.593 470.5C681.972 470.224 685.713 466.533 686.081 462C686.519 456.615 683.209 452.241 679.083 451.037C673.713 449.469 668.299 452.025 666.125 457.014C665.583 458.257 665.427 459.667 665.093 461" stroke="white" stroke-width="4" stroke-linecap="round" stroke-linejoin="round"/>
<path d="M459.593 61.5003C460.502 67.9178 463.899 70.5431 470.593 70.0003C474.922 69.6493 478.997 65.0891 478.525 60.5073C477.992 55.3245 475.393 51.337 469.093 51.0009C463.49 50.702 460.263 53.768 459.577 59.9985C459.539 60.346 459.26 60.667 459.093 61.0003" stroke="white" stroke-width="4" stroke-linecap="round" stroke-linejoin="round"/>
<path d="M526.093 279.5C532.8 280.448 537.446 275.554 543.085 273.477C543.981 273.147 544.747 272.477 545.595 272.004C557.551 265.349 563.554 255.053 563.477 241.501C563.449 236.589 561.586 232.164 557.718 228.374C553.76 224.497 549.767 221.123 544.619 218.939C537.405 215.878 530.53 217.907 524.179 220.695C518.279 223.284 513.093 227.5 507.593 231" stroke="white" stroke-width="4" stroke-linecap="round" stroke-linejoin="round"/>
<path d="M564.093 238.001C568.326 236.355 572.327 234.629 577.159 236.859C580.607 238.451 581.804 240.535 581.603 244.001C581.09 252.822 585.02 260.539 588.878 267.851C591.157 272.171 596.467 274.803 600.047 278.545C605.928 284.693 613.136 288.716 620.549 292.585C622.704 293.71 625.076 294.578 626.72 296.911C628.319 299.18 631.63 297.85 634.15 298.86C639.682 301.077 645.637 301.888 651.584 302.58C653.681 302.824 655.229 302.507 656.593 301.001" stroke="white" stroke-width="4" stroke-linecap="round" stroke-linejoin="round"/>
<path d="M651.593 249.5C636.093 243.5 620.593 237.5 605.093 231.5" stroke="white" stroke-width="4" stroke-linecap="round" stroke-linejoin="round"/>
<path d="M264.093 628.5C266.923 632.917 263.747 636.777 262.426 640.44C259.43 648.746 253.123 654.005 244.595 656.507C240.995 657.563 239.48 656.621 239.092 653.001C238.932 651.5 238.76 650 238.593 648.5" stroke="white" stroke-width="4" stroke-linecap="round" stroke-linejoin="round"/>
<path d="M669.093 302.501C673.39 308.189 677.982 307.306 682.037 304.905C686.038 302.536 687.346 295.398 685.093 291.501C682.693 287.349 678.603 285.508 675.093 287.001C667.346 290.296 665.234 293.727 667.093 300.001" stroke="white" stroke-width="4" stroke-linecap="round" stroke-linejoin="round"/>
<path d="M277.593 760C279.908 759.322 282.156 758.788 284.154 757.072C288.159 753.632 288.311 748.269 285.65 744.461C282.64 740.154 278.783 738.439 274.093 740C270.316 741.258 266.742 746.874 267.093 751C267.5 755.779 270.811 758.738 276.591 759.518C276.777 759.543 276.927 759.834 277.093 760" stroke="white" stroke-width="4" stroke-linecap="round" stroke-linejoin="round"/>
<path d="M793.093 436C785.915 438.958 783.969 444.797 788.593 449.501C791.232 452.184 797.096 452.184 799.593 449.5C801.902 447.019 801.587 441.56 799.113 438.982C797.564 437.368 795.751 436.406 793.593 436" stroke="white" stroke-width="4" stroke-linecap="round" stroke-linejoin="round"/>
<path d="M571.593 228.5C573.492 226.311 576.33 227.517 578.682 226.786C582.125 225.715 583.091 224.104 583.108 221.001C583.128 217.417 581.314 215.209 578.091 214.006C575.14 212.906 572.01 213.244 570.241 215.611C568.69 217.685 566.02 220.206 568.537 223.543C568.938 224.074 568.593 225.167 568.593 226" stroke="white" stroke-width="4" stroke-linecap="round" stroke-linejoin="round"/>
<path d="M687.093 356.5C681.467 359.807 680.267 364.408 684.093 368C686.009 369.798 690.926 370.087 692.593 368.5C694.789 366.411 695.401 361.692 693.563 359.526C692.044 357.735 690.343 356.002 687.593 356.5" stroke="white" stroke-width="4" stroke-linecap="round" stroke-linejoin="round"/>
<path d="M622.093 279.5C626.336 288.692 634.789 291.765 643.573 294.563C648.042 295.987 653.259 295.805 656.593 300" stroke="white" stroke-width="4" stroke-linecap="round" stroke-linejoin="round"/>
<path d="M605.593 101.501C602.752 101.695 600.995 103.243 600.641 106.007C600.359 108.209 601.123 110.261 603.111 111.472C605.307 112.81 607.673 113.554 609.573 110.985C611.174 108.821 612.938 106.539 610.089 104.005C609.015 103.05 608.565 101.207 606.593 101.501" stroke="white" stroke-width="4" stroke-linecap="round" stroke-linejoin="round"/>
<path d="M677.593 264.5C678.093 259.667 678.615 254.836 679.086 250C679.432 246.453 676.418 241.801 673.077 241.077C672.031 240.851 670.463 240.31 669.622 241.52C665.726 247.125 660.048 251.615 659.946 259.499C659.891 263.8 659.046 268.138 659.093 272.5" stroke="white" stroke-width="4" stroke-linecap="round" stroke-linejoin="round"/>
<path d="M466.593 325.501C462.923 325.585 459.229 325.118 455.593 325.998C451.881 326.896 448.22 326.544 444.593 325.501" stroke="white" stroke-width="4" stroke-linecap="round" stroke-linejoin="round"/>
<path d="M603.593 240C601.788 241.478 601.813 243.598 602.155 245.489C603.075 250.584 603.701 255.783 606.093 260.5" stroke="white" stroke-width="4" stroke-linecap="round" stroke-linejoin="round"/>
<path d="M649.593 256.5C651.65 259.914 649.896 263.93 651.482 267.549C652.778 270.509 654.094 272.386 657.563 273.142C661.693 274.042 665.593 276 669.593 277.5" stroke="white" stroke-width="4" stroke-linecap="round" stroke-linejoin="round"/>
<path d="M678.093 265.5C678.427 265.834 678.81 266.131 679.085 266.506C681.069 269.206 683.044 272.591 680.901 275.351C678.831 278.016 675.352 276.44 672.593 275" stroke="white" stroke-width="4" stroke-linecap="round" stroke-linejoin="round"/>
<path d="M587.593 267.501C586.093 267.798 584.97 268.264 583.027 267.752C575.321 265.72 567.375 265.936 559.602 268.033C557.71 268.543 555.927 268.728 554.093 268.001" stroke="white" stroke-width="4" stroke-linecap="round" stroke-linejoin="round"/>
<path d="M677.093 265.5C672.892 271.676 669.084 278.007 667.515 285.484C667.107 287.427 666.993 289.167 667.593 291" stroke="white" stroke-width="5" stroke-linecap="round" stroke-linejoin="round"/>
<path d="M595.593 235.501C595.988 232.349 595.101 230.282 591.612 229.424C587.994 228.534 585.928 230.369 584.701 233.05C583.69 235.259 582.317 236.951 580.593 238.501" stroke="white" stroke-width="3" stroke-linecap="round" stroke-linejoin="round"/>
<path d="M626.093 299C622.276 301.839 618.89 305.507 613.593 305.5" stroke="white" stroke-width="4" stroke-linecap="round" stroke-linejoin="round"/>
<path d="M572.093 235.25C572.093 234.167 572.135 233.082 572.086 232.001C571.846 226.704 569.466 225.347 565.095 228.003C563.751 228.82 562.427 229.667 561.093 230.5" stroke="white" stroke-width="5" stroke-linecap="round" stroke-linejoin="round"/>
<path d="M620.093 667.5C616.142 668.447 614.527 671.21 614.635 674.999C614.725 678.113 616.054 680.553 619.072 682.043C622.11 683.543 625.046 683.579 627.541 681.44C630.079 679.266 630.815 676.243 629.577 673.007C628.435 670.025 626.783 667.532 623.093 667.501C622.26 667.494 621.427 667.5 620.593 667.5" stroke="white" stroke-width="4" stroke-linecap="round" stroke-linejoin="round"/>
<path d="M403.593 2.50049C398.322 3.66298 392.87 3.50481 387.582 3.74518C377.761 4.19154 368.206 6.10283 358.621 7.67105C348.873 9.26601 339.147 11.1527 329.494 13.6107C321.065 15.7572 312.584 18.0013 304.131 20.1486C295.627 22.309 287.294 25.3328 279.123 28.5745C264.903 34.2159 250.772 40.0933 237.083 46.9808C222.779 54.1781 208.942 62.1117 195.524 70.895C181.813 79.8709 168.502 89.3756 156.188 100.109C142.956 111.643 129.792 123.248 117.928 136.351C106.468 149.006 95.462 161.981 85.1396 175.536C73.1715 191.251 62.7544 207.952 53.4591 225.429C47.0746 237.433 40.8001 249.467 35.6664 262.03C29.2026 277.848 23.7328 294.002 18.8312 310.422C13.8061 327.256 10.7115 344.438 7.33646 361.548C4.91947 373.802 4.74788 386.499 3.59667 399.001C2.35483 412.486 2.10962 426.007 3.16074 439.495C4.15004 452.19 5.35544 464.871 6.7472 477.539C8.09348 489.792 10.5069 501.828 12.28 513.973C13.6867 523.609 16.5724 533.051 19.1306 542.49C25.3503 565.44 33.8153 587.607 44.1898 608.954C56.9922 635.297 72.0253 660.402 90.1692 683.441C108.459 706.665 128.91 727.989 151.184 747.396C170.684 764.387 191.74 779.453 214.143 792.415C236.33 805.251 259.562 816.129 283.666 824.799C296.026 829.245 308.674 833.091 321.545 836.202C334.322 839.29 347.125 841.873 360.059 844.194C379.307 847.649 398.598 848.795 418.089 849.198C430.778 849.461 443.433 848.914 456.091 848.787C464.242 848.705 472.447 846.934 480.612 846.207C491.926 845.199 502.963 842.772 514.048 840.752C519.907 839.684 525.849 837.806 531.68 836.346C539.38 834.417 546.999 832.252 554.583 829.965C570.174 825.262 585.253 819.292 600.166 812.663C622.851 802.579 644.573 790.932 665.092 776.999C678.879 767.637 692.101 757.58 704.652 746.567C724.134 729.472 742.192 711.046 758.575 690.986C776.469 669.077 791.979 645.501 804.931 620.417C815.212 600.505 824.574 580.137 831.322 558.572C835.837 544.141 840.103 529.675 843.45 514.968C845.017 508.086 846.139 501.026 847.359 494.047C849.336 482.735 850.652 471.382 851.491 459.993C852.79 442.362 852.836 424.693 852.245 406.995C851.887 396.286 851.408 385.63 850.107 374.999C848.648 363.071 846.725 351.254 844.411 339.438C842.601 330.195 840.321 321.106 838.001 312.024C835.76 303.249 833.355 294.425 829.95 286.059C825.17 274.31 820.602 262.468 815.187 250.957C803.043 225.141 788.663 200.693 772.095 177.499C759.473 159.829 745.309 143.428 730.021 128.073C712.289 110.264 693.195 93.8951 672.522 79.6038C648.947 63.3065 624.077 49.2236 597.652 37.865C584.477 32.2024 571.163 27.008 557.562 22.5964C546.921 19.1447 535.929 16.7539 525.167 13.7388C513.088 10.355 500.788 8.18011 488.542 6.34181C477.696 4.71358 466.684 3.29571 455.598 2.88633C438.424 2.25215 421.259 2.76516 404.093 2.50049" stroke="white" stroke-width="5" stroke-linecap="round" stroke-linejoin="round"/>
<path d="M702.093 385.5C699.502 387.187 696.325 386.762 693.515 388.362C685.156 393.122 679.531 403.124 681.702 412.475C684.11 422.847 689.578 429.154 700.605 430.928C710.967 432.595 719.15 427.261 724.221 418.071C730.732 406.272 723.356 388.697 708.607 386.413C706.61 386.103 704.68 385.311 702.593 385.5" stroke="white" stroke-width="4" stroke-linecap="round" stroke-linejoin="round"/>
<path d="M644.093 162.5C636.962 165.569 633.484 172.99 636.593 178.5C638.759 182.338 644.027 184.629 648.093 183.5C653.62 181.967 657.423 177.319 657.093 172.5C656.762 167.665 652.733 163.392 647.589 162.524C646.617 162.36 645.593 162.5 644.593 162.5" stroke="white" stroke-width="4" stroke-linecap="round" stroke-linejoin="round"/>
<path d="M622.093 124.5C617.447 126.401 612.535 127.835 611.545 133.993C610.439 140.871 613.794 147.219 619.593 148.5C627.06 150.15 633.572 146.282 635.032 138.988C635.8 135.153 632.885 127.417 627.595 125.993C625.916 125.541 624.26 125 622.593 124.5" stroke="white" stroke-width="4" stroke-linecap="round" stroke-linejoin="round"/>
<path d="M431.593 788C429.872 788.946 428.767 790.465 427.547 791.963C424.737 795.414 425.143 798.727 427.618 801.981C429.542 804.511 434.911 805.751 437.593 804.5C440.554 803.12 442.682 798.628 442.093 795C441.417 790.83 438.888 788.454 434.592 788.013C433.767 787.928 432.927 788 432.093 788" stroke="white" stroke-width="4" stroke-linecap="round" stroke-linejoin="round"/>
</svg>
